<svg width="360" height="96" viewBox="0 0 360 96" fill="none" xmlns="http://www.w3.org/2000/svg" role="img" aria-labelledby="title desc">
  <title id="title">Valaiyam.com</title>
  <desc id="desc">Connected circular Valaiyam brand mark with blue, green, orange and purple nodes.</desc>
  <g transform="translate(14 12)">
    <path d="M30 11A33 33 0 0 1 61 11" stroke="#16B84E" stroke-width="8" stroke-linecap="round"/>
    <path d="M65 18A33 33 0 0 1 65 54" stroke="#FF7A1A" stroke-width="8" stroke-linecap="round"/>
    <path d="M55 63A33 33 0 0 1 19 63" stroke="#6D4BE8" stroke-width="8" stroke-linecap="round"/>
    <path d="M10 54A33 33 0 0 1 10 18" stroke="#1479E8" stroke-width="8" stroke-linecap="round"/>
    <circle cx="46" cy="10" r="9" fill="#16B84E"/>
    <circle cx="69" cy="36" r="9" fill="#FF7A1A"/>
    <circle cx="36" cy="68" r="9" fill="#6D4BE8"/>
    <circle cx="10" cy="36" r="9" fill="#1479E8"/>
  </g>
  <text x="106" y="51" font-family="Inter, system-ui, -apple-system, BlinkMacSystemFont, 'Segoe UI', sans-serif" font-size="35" font-weight="800" letter-spacing="3" fill="#061947">VALAIYAM</text>
  <circle cx="296" cy="43" r="4" fill="#16B84E"/>
  <text x="306" y="51" font-family="Inter, system-ui, -apple-system, BlinkMacSystemFont, 'Segoe UI', sans-serif" font-size="29" font-weight="800" fill="#1479E8">COM</text>
  <path d="M113 72H143" stroke="#1479E8" stroke-width="3" stroke-linecap="round"/>
  <text x="154" y="77" font-family="Inter, system-ui, -apple-system, BlinkMacSystemFont, 'Segoe UI', sans-serif" font-size="16" font-weight="500" letter-spacing="3" fill="#222222">Your Business. Our Technology.</text>
  <path d="M325 72H350" stroke="#6D4BE8" stroke-width="3" stroke-linecap="round"/>
</svg>
